<svg width="128" height="128" viewBox="0 0 128 128" fill="none" xmlns="http://www.w3.org/2000/svg">
  <rect width="128" height="128" rx="32" fill="#F4EAD6"/>
  <rect x="8" y="8" width="112" height="112" rx="28" stroke="#B5883A" stroke-width="4"/>
  <path d="M64 30C44.1177 30 28 46.1178 28 66C28 85.8822 44.1177 102 64 102C76.8045 102 88.047 95.3248 94.4147 85.2617L81.1856 77.2861C77.7898 82.5578 71.8683 86 65.1429 86C54.5706 86 46 77.4294 46 66.8571C46 56.2848 54.5706 47.7143 65.1429 47.7143C72.571 47.7143 78.999 51.9462 82.1957 58.1429H62.8571V72.5714H100V64C100 45.2223 84.7777 30 66 30H64Z" fill="#16110C"/>
</svg>
